<svg width="150" height="791" viewBox="0 0 150 791" fill="none" xmlns="http://www.w3.org/2000/svg">
<rect y="0.00238037" width="150" height="790" fill="white"/>
<path d="M0 20.0046H150V40.0046H0V20.0046Z" fill="black"/>
<path d="M0 60.0068H150V80.0068H0V60.0068Z" fill="black"/>
<path d="M0 200.005H150V216.005H0V200.005Z" fill="black"/>
<path d="M0 230.005H150V244.005H0V230.005Z" fill="black"/>
<path d="M0 258.005H150V272.005H0V258.005Z" fill="black"/>
<path d="M0 311.005H150V324.005H0V311.005Z" fill="black"/>
<path d="M0 336.005H150V348.005H0V336.005Z" fill="black"/>
<path d="M0 360.005H150V372.005H0V360.005Z" fill="black"/>
<path d="M0 384.005H150V396.005H0V384.005Z" fill="black"/>
<path d="M0 407.005H150V418.005H0V407.005Z" fill="black"/>
<path d="M0 429.005H150V440.005H0V429.005Z" fill="black"/>
<path d="M0 451.005H150V462.005H0V451.005Z" fill="black"/>
<path d="M0 472.005H150V482.005H0V472.005Z" fill="black"/>
<path d="M0 492.005H150V502.005H0V492.005Z" fill="black"/>
<path d="M0 512.005H150V522.005H0V512.005Z" fill="black"/>
<path d="M0 531.005H150V540.005H0V531.005Z" fill="black"/>
<path d="M0 549.005H150V558.005H0V549.005Z" fill="black"/>
<path d="M0 567.005H150V576.005H0V567.005Z" fill="black"/>
<path d="M0 584.005H150V592.005H0V584.005Z" fill="black"/>
<path d="M0 600.005H150V608.005H0V600.005Z" fill="black"/>
<path d="M0 616.005H150V624.005H0V616.005Z" fill="black"/>
<path d="M0 631.005H150V638.005H0V631.005Z" fill="black"/>
<path d="M0 645.005H150V652.005H0V645.005Z" fill="black"/>
<path d="M0 659.005H150V666.005H0V659.005Z" fill="black"/>
<path d="M0 673.005H150V680.005H0V673.005Z" fill="black"/>
<path d="M0 687.005H150V694.005H0V687.005Z" fill="black"/>
<path d="M0 700.005H150V706.005H0V700.005Z" fill="black"/>
<path d="M0 712.005H150V718.005H0V712.005Z" fill="black"/>
<path d="M0 724.005H150V730.005H0V724.005Z" fill="black"/>
<path d="M0 736.005H150V742.005H0V736.005Z" fill="black"/>
<path d="M0 748.005H150V754.005H0V748.005Z" fill="black"/>
<path d="M0 760.005H150V766.005H0V760.005Z" fill="black"/>
<path d="M0 772.005H150V778.005H0V772.005Z" fill="black"/>
<path d="M0 784.005H150V790.005H0V784.005Z" fill="black"/>
<path d="M0 285.005H150V298.005H0V285.005Z" fill="black"/>
<path d="M0 168.005H150V184.005H0V168.005Z" fill="black"/>
<path d="M0 134.005H150V152.005H0V134.005Z" fill="black"/>
<path d="M0 98.0046H150V116.005H0V98.0046Z" fill="black"/>
<rect x="6.10352e-05" width="150" height="7" fill="#999999"/>
</svg>
