<svg width="310" height="311" viewBox="0 0 310 311" fill="none" xmlns="http://www.w3.org/2000/svg">
<mask id="mask0" mask-type="alpha" maskUnits="userSpaceOnUse" x="0" y="0" width="310" height="311">
<rect y="0.00476074" width="310" height="310" fill="black"/>
</mask>
<g mask="url(#mask0)">
<rect y="0.00476074" width="310" height="310" fill="white"/>
<path d="M-170 175.48L183.817 -178.337L191.245 -170.91L-162.573 182.908L-170 175.48Z" fill="black"/>
<path d="M-155.145 190.335L198.672 -163.482L206.1 -156.055L-147.718 197.763L-155.145 190.335Z" fill="black"/>
<path d="M-140.29 205.19L213.527 -148.627L220.954 -141.2L-132.863 212.617L-140.29 205.19Z" fill="black"/>
<path d="M-125.435 220.045L228.382 -133.773L235.809 -126.345L-118.008 227.472L-125.435 220.045Z" fill="black"/>
<path d="M-110.581 234.9L243.237 -118.918L250.664 -111.49L-103.153 242.327L-110.581 234.9Z" fill="black"/>
<path d="M-95.7258 249.755L258.092 -104.063L265.519 -96.6354L-88.2984 257.182L-95.7258 249.755Z" fill="black"/>
<path d="M-80.871 264.609L272.946 -89.208L280.374 -81.7806L-73.4435 272.037L-80.871 264.609Z" fill="black"/>
<path d="M-66.0161 279.464L287.801 -74.3532L295.229 -66.9257L-58.5887 286.892L-66.0161 279.464Z" fill="black"/>
<path d="M-51.1613 294.319L302.656 -59.4983L310.084 -52.0709L-43.7339 301.746L-51.1613 294.319Z" fill="black"/>
<path d="M-36.3065 309.174L317.511 -44.6435L324.938 -37.2161L-28.879 316.601L-36.3065 309.174Z" fill="black"/>
<path d="M-21.4516 324.029L332.366 -29.7887L339.793 -22.3612L-14.0242 331.456L-21.4516 324.029Z" fill="black"/>
<path d="M-6.59677 338.884L347.221 -14.9338L354.648 -7.50639L0.830645 346.311L-6.59677 338.884Z" fill="black"/>
<path d="M8.25807 353.738L362.075 -0.0789666L369.503 7.34845L15.6855 361.166L8.25807 353.738Z" fill="black"/>
<path d="M23.1129 368.593L376.93 14.7759L384.358 22.2033L30.5403 376.021L23.1129 368.593Z" fill="black"/>
<path d="M37.9677 383.448L391.785 29.6307L399.213 37.0581L45.3952 390.876L37.9677 383.448Z" fill="black"/>
<path d="M52.8226 398.303L406.64 44.4855L414.067 51.913L60.25 405.73L52.8226 398.303Z" fill="black"/>
<path d="M67.6774 413.158L421.495 59.3404L428.922 66.7678L75.1048 420.585L67.6774 413.158Z" fill="black"/>
<path d="M82.5323 428.013L436.35 74.1952L443.777 81.6226L89.9597 435.44L82.5323 428.013Z" fill="black"/>
<path d="M97.3871 442.867L451.204 89.0501L458.632 96.4775L104.815 450.295L97.3871 442.867Z" fill="black"/>
<path d="M112.242 457.722L466.059 103.905L473.487 111.332L119.669 465.15L112.242 457.722Z" fill="black"/>
<path d="M127.097 472.577L480.914 118.76L488.342 126.187L134.524 480.005L127.097 472.577Z" fill="black"/>
</g>
</svg>
