<svg width="310" height="311" viewBox="0 0 310 311" fill="none" xmlns="http://www.w3.org/2000/svg">
<mask id="mask0" mask-type="alpha" maskUnits="userSpaceOnUse" x="0" y="0" width="310" height="311">
<rect y="0.00238037" width="310" height="310" fill="white"/>
</mask>
<g mask="url(#mask0)">
<rect y="0.00238037" width="310" height="310" fill="white"/>
<path d="M141.227 -167.475L472.242 163.541L468.014 167.77L136.998 -163.246L141.227 -167.475Z" fill="black"/>
<path d="M132.769 -159.017L463.785 171.999L459.556 176.227L128.54 -154.789L132.769 -159.017Z" fill="black"/>
<path d="M124.311 -150.56L455.327 180.456L451.098 184.685L120.082 -146.331L124.311 -150.56Z" fill="black"/>
<path d="M115.853 -142.102L446.869 188.914L442.641 193.143L111.625 -137.873L115.853 -142.102Z" fill="black"/>
<path d="M107.396 -133.644L438.412 197.372L434.183 201.601L103.167 -129.415L107.396 -133.644Z" fill="black"/>
<path d="M98.938 -125.187L429.954 205.829L425.725 210.058L94.7091 -120.958L98.938 -125.187Z" fill="black"/>
<path d="M90.4803 -116.729L421.496 214.287L417.267 218.516L86.2514 -112.5L90.4803 -116.729Z" fill="black"/>
<path d="M82.0226 -108.271L413.039 222.745L408.81 226.974L77.7937 -104.042L82.0226 -108.271Z" fill="black"/>
<path d="M73.5649 -99.8135L404.581 231.203L400.352 235.431L69.336 -95.5846L73.5649 -99.8135Z" fill="black"/>
<path d="M65.1072 -91.3558L396.123 239.66L391.894 243.889L60.8783 -87.127L65.1072 -91.3558Z" fill="black"/>
<path d="M-27.9275 1.6789L303.088 332.695L298.86 336.924L-32.1564 5.90775L-27.9275 1.6789Z" fill="black"/>
<path d="M-36.3852 10.1366L294.631 341.153L290.402 345.381L-40.6141 14.3655L-36.3852 10.1366Z" fill="black"/>
<path d="M-44.8429 18.5943L286.173 349.61L281.944 353.839L-49.0718 22.8232L-44.8429 18.5943Z" fill="black"/>
<path d="M-53.3006 27.052L277.715 358.068L273.487 362.297L-57.5295 31.2809L-53.3006 27.052Z" fill="black"/>
<path d="M-61.7583 35.5097L269.258 366.526L265.029 370.755L-65.9872 39.7385L-61.7583 35.5097Z" fill="black"/>
<path d="M-70.216 43.9674L260.8 374.983L256.571 379.212L-74.4449 48.1962L-70.216 43.9674Z" fill="black"/>
<path d="M-78.6737 52.4251L252.342 383.441L248.113 387.67L-82.9026 56.6539L-78.6737 52.4251Z" fill="black"/>
<path d="M-87.1314 60.8828L243.885 391.899L239.656 396.128L-91.3603 65.1116L-87.1314 60.8828Z" fill="black"/>
<path d="M-95.5891 69.3405L235.427 400.357L231.198 404.585L-99.818 73.5694L-95.5891 69.3405Z" fill="black"/>
<path d="M-104.047 77.7982L226.969 408.814L222.74 413.043L-108.276 82.0271L-104.047 77.7982Z" fill="black"/>
<path d="M-112.505 86.2559L218.511 417.272L214.283 421.501L-116.733 90.4847L-112.505 86.2559Z" fill="black"/>
<path d="M-120.962 94.7136L210.054 425.73L205.825 429.958L-125.191 98.9424L-120.962 94.7136Z" fill="black"/>
<path d="M-129.42 103.171L201.596 434.187L197.367 438.416L-133.649 107.4L-129.42 103.171Z" fill="black"/>
<path d="M-137.878 111.629L193.138 442.645L188.91 446.874L-142.106 115.858L-137.878 111.629Z" fill="black"/>
<path d="M-146.335 120.087L184.681 451.103L180.452 455.332L-150.564 124.316L-146.335 120.087Z" fill="black"/>
<path d="M-154.793 128.544L176.223 459.56L171.994 463.789L-159.022 132.773L-154.793 128.544Z" fill="black"/>
<path d="M-163.251 137.002L167.765 468.018L163.536 472.247L-167.48 141.231L-163.251 137.002Z" fill="black"/>
<path d="M56.6495 -82.8981L387.665 248.118L383.437 252.347L52.4206 -78.6692L56.6495 -82.8981Z" fill="black"/>
<path d="M48.1918 -74.4404L379.208 256.576L374.979 260.804L43.9629 -70.2115L48.1918 -74.4404Z" fill="black"/>
<path d="M39.7341 -65.9827L370.75 265.033L366.521 269.262L35.5052 -61.7539L39.7341 -65.9827Z" fill="black"/>
<path d="M31.2764 -57.525L362.292 273.491L358.064 277.72L27.0475 -53.2961L31.2764 -57.525Z" fill="black"/>
<path d="M22.8187 -49.0673L353.835 281.949L349.606 286.178L18.5898 -44.8384L22.8187 -49.0673Z" fill="black"/>
<path d="M14.361 -40.6096L345.377 290.406L341.148 294.635L10.1321 -36.3808L14.361 -40.6096Z" fill="black"/>
<path d="M5.9033 -32.1519L336.919 298.864L332.69 303.093L1.67444 -27.9231L5.9033 -32.1519Z" fill="black"/>
<path d="M-2.55441 -23.6942L328.462 307.322L324.233 311.551L-6.78326 -19.4653L-2.55441 -23.6942Z" fill="black"/>
<path d="M-11.0121 -15.2365L320.004 315.78L315.775 320.008L-15.241 -11.0076L-11.0121 -15.2365Z" fill="black"/>
<path d="M-19.4698 -6.7788L311.546 324.237L307.317 328.466L-23.6987 -2.54995L-19.4698 -6.7788Z" fill="black"/>
</g>
</svg>
