<svg width="1600" height="320" viewBox="0 0 1600 320" fill="none" xmlns="http://www.w3.org/2000/svg">
<rect width="1600" height="320" fill="white"/>
<path d="M1286 0H1292V320H1286V0Z" fill="black"/>
<path d="M1298 0H1305V320H1298V0Z" fill="black"/>
<path d="M1311 0H1317V320H1311V0Z" fill="black"/>
<path d="M1323 0H1330V320H1323V0Z" fill="black"/>
<path d="M1336 0H1342V320H1336V0Z" fill="black"/>
<path d="M1536 0H1543V320H1536V0Z" fill="black"/>
<path d="M1549 0H1555V320H1549V0Z" fill="black"/>
<path d="M1562 0H1568V320H1562V0Z" fill="black"/>
<path d="M1574 0H1580V320H1574V0Z" fill="black"/>
<path d="M1587 0H1593V320H1587V0Z" fill="black"/>
<path d="M1474 0H1480V320H1474V0Z" fill="black"/>
<path d="M1486 0H1493V320H1486V0Z" fill="black"/>
<path d="M1499 0H1505V320H1499V0Z" fill="black"/>
<path d="M1511 0H1518V320H1511V0Z" fill="black"/>
<path d="M1524 0H1530V320H1524V0Z" fill="black"/>
<path d="M1411 0H1417V320H1411V0Z" fill="black"/>
<path d="M1424 0H1430V320H1424V0Z" fill="black"/>
<path d="M1436 0H1442V320H1436V0Z" fill="black"/>
<path d="M1449 0H1455V320H1449V0Z" fill="black"/>
<path d="M1461 0H1468V320H1461V0Z" fill="black"/>
<path d="M1348 0H1355V320H1348V0Z" fill="black"/>
<path d="M1361 0H1367V320H1361V0Z" fill="black"/>
<path d="M1373 0H1380V320H1373V0Z" fill="black"/>
<path d="M1386 0H1392V320H1386V0Z" fill="black"/>
<path d="M1399 0H1405V320H1399V0Z" fill="black"/>
<path d="M965 0H972.923V320H965V0Z" fill="black"/>
<path d="M980.846 0H988.769V320H980.846V0Z" fill="black"/>
<path d="M996.692 0H1004.62V320H996.692V0Z" fill="black"/>
<path d="M1012.54 0H1020.46V320H1012.54V0Z" fill="black"/>
<path d="M1028.38 0H1036.31V320H1028.38V0Z" fill="black"/>
<path d="M1202.69 0H1210.62V320H1202.69V0Z" fill="black"/>
<path d="M1218.54 0H1226.46V320H1218.54V0Z" fill="black"/>
<path d="M1234.38 0H1242.31V320H1234.38V0Z" fill="black"/>
<path d="M1250.23 0H1258.15V320H1250.23V0Z" fill="black"/>
<path d="M1266.08 0H1274V320H1266.08V0Z" fill="black"/>
<path d="M1123.46 0H1131.38V320H1123.46V0Z" fill="black"/>
<path d="M1139.31 0H1147.23V320H1139.31V0Z" fill="black"/>
<path d="M1155.15 0H1163.08V320H1155.15V0Z" fill="black"/>
<path d="M1171 0H1178.92V320H1171V0Z" fill="black"/>
<path d="M1186.85 0H1194.77V320H1186.85V0Z" fill="black"/>
<path d="M1044.23 0H1052.15V320H1044.23V0Z" fill="black"/>
<path d="M1060.08 0H1068V320H1060.08V0Z" fill="black"/>
<path d="M1075.92 0H1083.85V320H1075.92V0Z" fill="black"/>
<path d="M1091.77 0H1099.69V320H1091.77V0Z" fill="black"/>
<path d="M1107.62 0H1115.54V320H1107.62V0Z" fill="black"/>
<path d="M622 0H632.806V320H622V0Z" fill="black"/>
<path d="M643.613 0H654.419V320H643.613V0Z" fill="black"/>
<path d="M665.226 0H676.032V320H665.226V0Z" fill="black"/>
<path d="M686.839 0H697.645V320H686.839V0Z" fill="black"/>
<path d="M708.452 0H719.258V320H708.452V0Z" fill="black"/>
<path d="M946.194 0H957V320H946.194V0Z" fill="black"/>
<path d="M838.129 0H848.936V320H838.129V0Z" fill="black"/>
<path d="M859.742 0H870.548V320H859.742V0Z" fill="black"/>
<path d="M881.355 0H892.161V320H881.355V0Z" fill="black"/>
<path d="M902.968 0H913.774V320H902.968V0Z" fill="black"/>
<path d="M924.581 0H935.387V320H924.581V0Z" fill="black"/>
<path d="M730.064 0H740.871V320H730.064V0Z" fill="black"/>
<path d="M751.678 0H762.484V320H751.678V0Z" fill="black"/>
<path d="M773.29 0H784.097V320H773.29V0Z" fill="black"/>
<path d="M794.903 0H805.71V320H794.903V0Z" fill="black"/>
<path d="M816.516 0H827.323V320H816.516V0Z" fill="black"/>
<path d="M591 0H607V320H591V0Z" fill="black"/>
<path d="M431 0H447V320H431V0Z" fill="black"/>
<path d="M463 0H479V320H463V0Z" fill="black"/>
<path d="M495 0H511V320H495V0Z" fill="black"/>
<path d="M527 0H543V320H527V0Z" fill="black"/>
<path d="M559 0H575V320H559V0Z" fill="black"/>
<path d="M335 0H351V320H335V0Z" fill="black"/>
<path d="M367 0H383V320H367V0Z" fill="black"/>
<path d="M399 0H415V320H399V0Z" fill="black"/>
<path d="M262.143 0H302V320H262.143V0Z" fill="black"/>
<path d="M23 0H62.8571V320H23V0Z" fill="black"/>
<path d="M102.714 0H142.571V320H102.714V0Z" fill="black"/>
<path d="M182.429 0H222.286V320H182.429V0Z" fill="black"/>
</svg>
